<?xml version="1.0" encoding="UTF-8" standalone="no"?>
<!-- Created with Inkscape (http://www.inkscape.org/) -->

<svg
   width="1024"
   height="512"
   viewBox="0 0 270.93334 135.46667"
   version="1.1"
   id="svg5"
   inkscape:version="1.4.4 (dcaf3e7d9e, 2026-05-05)"
   sodipodi:docname="fftesc_title_on.svg"
   inkscape:export-filename="FFTESC-TOOL/image128.svg"
   inkscape:export-xdpi="96"
   inkscape:export-ydpi="96"
   xml:space="preserve"
   xmlns:inkscape="http://www.inkscape.org/namespaces/inkscape"
   xmlns:sodipodi="http://sodipodi.sourceforge.net/DTD/sodipodi-0.dtd"
   xmlns="http://www.w3.org/2000/svg"
   xmlns:svg="http://www.w3.org/2000/svg"><sodipodi:namedview
     id="namedview7"
     pagecolor="#ffffff"
     bordercolor="#000000"
     borderopacity="0.25"
     inkscape:showpageshadow="2"
     inkscape:pageopacity="0.0"
     inkscape:pagecheckerboard="0"
     inkscape:deskcolor="#d1d1d1"
     inkscape:document-units="mm"
     showgrid="false"
     inkscape:zoom="0.70710678"
     inkscape:cx="694.37886"
     inkscape:cy="364.15999"
     inkscape:window-width="1680"
     inkscape:window-height="988"
     inkscape:window-x="0"
     inkscape:window-y="28"
     inkscape:window-maximized="1"
     inkscape:current-layer="layer1"
     showguides="false"><sodipodi:guide
       position="194.13946,-43.702403"
       orientation="0,-1"
       id="guide9857"
       inkscape:locked="false" /></sodipodi:namedview><defs
     id="defs2"><rect
       x="-437.09808"
       y="-26.054583"
       width="441.93259"
       height="520.82654"
       id="rect12314" /><rect
       x="95.552795"
       y="51.712677"
       width="340.73022"
       height="125.65518"
       id="rect9123" /><linearGradient
       id="linearGradient2261-1"><stop
         style="stop-color:#6246ea;stop-opacity:1;"
         offset="0.28416035"
         id="stop2270" /><stop
         style="stop-color:#6246ea;stop-opacity:0;"
         offset="1"
         id="stop2272" /></linearGradient><rect
       x="70.74913"
       y="554.35327"
       width="317.40121"
       height="93.423157"
       id="rect1230" /><rect
       x="95.552795"
       y="51.712677"
       width="340.73022"
       height="125.65518"
       id="rect9855" /><filter
       inkscape:collect="always"
       style="color-interpolation-filters:sRGB"
       id="filter12959"
       x="-0.099398917"
       y="-0.058808688"
       width="1.1973652"
       height="1.1176174"><feGaussianBlur
         inkscape:collect="always"
         stdDeviation="0.40226474"
         id="feGaussianBlur12961" /></filter><filter
       inkscape:collect="always"
       style="color-interpolation-filters:sRGB"
       id="filter4306-3"
       x="-0.12538486"
       y="-0.21954784"
       width="1.2507697"
       height="1.3367134"><feGaussianBlur
         inkscape:collect="always"
         stdDeviation="0.22622835"
         id="feGaussianBlur4308-6" /></filter><filter
       inkscape:collect="always"
       style="color-interpolation-filters:sRGB"
       id="filter8029-7"
       x="-0.068507621"
       y="-0.080444643"
       width="1.1243627"
       height="1.1607239"><feGaussianBlur
         inkscape:collect="always"
         stdDeviation="0.76040708"
         id="feGaussianBlur8031-5" /></filter><filter
       inkscape:collect="always"
       style="color-interpolation-filters:sRGB"
       id="filter18838-3"
       x="-0.014975765"
       y="-0.025685534"
       width="1.0290462"
       height="1.0509393"><feGaussianBlur
         inkscape:collect="always"
         stdDeviation="0.27851071"
         id="feGaussianBlur18840-5" /></filter><filter
       inkscape:collect="always"
       style="color-interpolation-filters:sRGB"
       id="filter11755-6"
       x="-0.05038632"
       y="-0.062825912"
       width="1.0965578"
       height="1.107101"><feGaussianBlur
         inkscape:collect="always"
         stdDeviation="1.5718198"
         id="feGaussianBlur11757-2" /></filter><filter
       inkscape:collect="always"
       style="color-interpolation-filters:sRGB"
       id="filter8029"
       x="-0.068507621"
       y="-0.080444643"
       width="1.1243627"
       height="1.1607239"><feGaussianBlur
         inkscape:collect="always"
         stdDeviation="0.76040708"
         id="feGaussianBlur8031" /></filter><filter
       inkscape:collect="always"
       style="color-interpolation-filters:sRGB"
       id="filter11755"
       x="-0.05038632"
       y="-0.062825912"
       width="1.0965578"
       height="1.107101"><feGaussianBlur
         inkscape:collect="always"
         stdDeviation="1.5718198"
         id="feGaussianBlur11757" /></filter><filter
       inkscape:collect="always"
       style="color-interpolation-filters:sRGB"
       id="filter1118"
       x="-0.051389758"
       y="-0.19624898"
       width="1.1023197"
       height="1.3947825"><feGaussianBlur
         inkscape:collect="always"
         stdDeviation="1.0017521"
         id="feGaussianBlur1120" /></filter><filter
       inkscape:collect="always"
       style="color-interpolation-filters:sRGB"
       id="filter1202"
       x="-0.15848647"
       y="-0.2224909"
       width="1.3169729"
       height="1.4449818"><feGaussianBlur
         inkscape:collect="always"
         stdDeviation="1.2145129"
         id="feGaussianBlur1204" /></filter></defs><g
     inkscape:label="Calque 1"
     inkscape:groupmode="layer"
     id="layer1"
     transform="translate(24.572468,-119.76371)"><g
       id="g1"><path
         id="path9971-1"
         style="mix-blend-mode:color;fill:#6a50eb;fill-opacity:1;fill-rule:evenodd;stroke:#ffcc00;stroke-width:3.203;stroke-dasharray:none;stroke-opacity:0.407999;filter:url(#filter4306-3)"
         inkscape:transform-center-x="0.37794308"
         inkscape:transform-center-y="-1.4315754"
         transform="matrix(-3.0761235,0,0,5.3591544,221.34145,-537.59444)"
         d="m 34.440005,145.39538 c -1.335443,-0.0411 -2.568866,-0.56571 -4.367027,-1.59596 -3.596321,-2.0605 -6.680371,-1.7721 -6.687329,-5.69584 -0.007,-3.92374 -3.056909,-11.01092 -3.056909,-11.01092 l 9.27469,4.79009 c 1.02578,-0.55321 2.771292,-1.15231 4.836575,-1.33433 h 1.940964 c 2.065283,0.18202 3.810795,0.78112 4.836575,1.33433 l 9.274691,-4.79009 c 0,0 -3.049909,7.08718 -3.056909,11.01092 -0.007,3.92374 -3.091008,3.63534 -6.68733,5.69584 -1.798161,1.03025 -3.031584,1.55486 -4.367027,1.59596 z"
         sodipodi:nodetypes="csccccccccscc" /><path
         id="path8039-7"
         style="opacity:0.667764;mix-blend-mode:normal;fill:#00ff00;fill-opacity:0.704747;fill-rule:evenodd;stroke:#808080;stroke-width:1.62012;stroke-opacity:1;filter:url(#filter8029-7)"
         d="m 99.219684,171.04045 c 25.340406,1.41286 14.444026,62.26377 -25.406389,14.49397 l -8.286914,-13.71311 z"
         sodipodi:nodetypes="cccc"
         inkscape:transform-center-x="21.57986"
         inkscape:transform-center-y="-6.5284241"
         transform="matrix(-0.87010673,-0.14389183,-0.17497499,1.1018574,245.3641,4.2994667)" /><path
         id="path12973-0"
         style="opacity:0.667764;mix-blend-mode:normal;fill:#00ff00;fill-opacity:0.704747;fill-rule:evenodd;stroke:#808080;stroke-width:1.62012;stroke-opacity:1;filter:url(#filter8029-7)"
         d="m 99.219684,171.04045 c 25.340406,1.41286 14.444026,62.26377 -25.406389,14.49397 l -8.286914,-13.71311 z"
         sodipodi:nodetypes="cccc"
         inkscape:transform-center-x="-21.57986"
         inkscape:transform-center-y="-6.5284241"
         transform="matrix(0.87010673,-0.14389183,0.17497499,1.1018574,-20.535265,4.2994667)" /><path
         style="opacity:0.860003;mix-blend-mode:normal;fill:none;fill-opacity:1;fill-rule:evenodd;stroke:#000000;stroke-width:3.4;stroke-dasharray:none;stroke-opacity:1;filter:url(#filter11755-6)"
         d="M 85.082517,212.31551 C 84.265056,198.17267 85.401368,187.40999 80.766911,173.18257 76.132453,158.95515 69.116155,128.17302 69.116155,128.17302 l 43.519575,32.75105 c 6.13195,-6.91149 29.74941,-9.95821 40.53474,-0.74035 l 44.20168,-32.13896 c -0.64679,-1.33665 -12.7803,41.10357 -15.27637,55.9392 -2.49607,14.83563 -0.5425,42.27692 -11.41564,45.88696 -16.74165,8.25621 -11.99972,7.77106 -23.56286,19.30095 -8.89426,2.10348 -23.29118,5.44486 -29.99008,-3.12007 -6.53449,-8.00839 -20.21644,-11.83641 -22.220138,-16.49682 -6.759345,-3.13324 -8.159557,-10.28564 -9.824545,-17.23947 z"
         id="path10247-0"
         sodipodi:nodetypes="czcccczccccc"
         transform="matrix(0.86887562,0,0,0.9905742,-3.12333,0.648479)" /><path
         id="path8039"
         style="opacity:0.667764;mix-blend-mode:normal;fill:#00ff00;fill-opacity:0.704747;fill-rule:evenodd;stroke:#808080;stroke-width:1.62012;stroke-opacity:1;filter:url(#filter8029)"
         d="m 99.219684,171.04045 c 25.340406,1.41286 14.444026,62.26377 -25.406389,14.49397 l -8.286914,-13.71311 z"
         sodipodi:nodetypes="cccc"
         inkscape:transform-center-x="21.57986"
         inkscape:transform-center-y="-6.5284241"
         transform="matrix(-0.87010673,-0.14389183,-0.17497499,1.1018574,245.43139,4.2593977)" /><path
         id="path12973"
         style="opacity:0.667764;mix-blend-mode:normal;fill:#00ff00;fill-opacity:0.704747;fill-rule:evenodd;stroke:#808080;stroke-width:1.62012;stroke-opacity:1;filter:url(#filter8029)"
         d="m 99.219684,171.04045 c 25.340406,1.41286 14.444026,62.26377 -25.406389,14.49397 l -8.286914,-13.71311 z"
         sodipodi:nodetypes="cccc"
         inkscape:transform-center-x="-21.57986"
         inkscape:transform-center-y="-6.5284241"
         transform="matrix(0.87010673,-0.14389183,0.17497499,1.1018574,-20.467975,4.2593977)" /><path
         style="opacity:0.860003;mix-blend-mode:normal;fill:none;fill-opacity:1;fill-rule:evenodd;stroke:#000000;stroke-width:3.4;stroke-dasharray:none;stroke-opacity:1;filter:url(#filter11755)"
         d="M 85.082517,212.31551 C 84.265056,198.17267 85.401368,187.40999 80.766911,173.18257 76.132453,158.95515 69.116155,128.17302 69.116155,128.17302 l 43.519575,32.75105 c 6.13195,-6.91149 29.74941,-9.95821 40.53474,-0.74035 l 44.20168,-32.13896 c -0.64679,-1.33665 -12.7803,41.10357 -15.27637,55.9392 -2.49607,14.83563 -0.5425,42.27692 -11.41564,45.88696 -16.74165,8.25621 -11.99972,7.77106 -23.56286,19.30095 -8.89426,2.10348 -23.29118,5.44486 -29.99008,-3.12007 -6.53449,-8.00839 -20.21644,-11.83641 -22.220138,-16.49682 -6.759345,-3.13324 -8.159557,-10.28564 -9.824545,-17.23947 z"
         id="path10247"
         sodipodi:nodetypes="czcccczccccc"
         transform="matrix(0.86887562,0,0,0.9905742,-3.05604,0.60841)" /><path
         style="opacity:0.764462;mix-blend-mode:normal;fill:#d3bc5f;fill-opacity:0.577899;stroke:#000000;stroke-width:1.31;stroke-dasharray:none;filter:url(#filter1118)"
         d="m -34.69836,189.69632 c 25.5104229,11.94772 34.1452027,6.53006 55.273846,-0.6901 -25.1847757,20.2866 -33.016087,20.56835 -55.273846,0.6901 z"
         id="path235"
         sodipodi:nodetypes="ccc"
         transform="matrix(0.97947319,0,0,1.2164834,119.22909,-20.859498)" /><path
         id="path1194"
         style="fill:#ffff00;fill-opacity:0.577899;stroke-width:1.61521;filter:url(#filter1202)"
         transform="rotate(31.693512,21.412198,221.13927)"
         d="m 83.595425,161.90431 a 9.1958351,6.5504479 0 0 1 -9.195835,6.55045 9.1958351,6.5504479 0 0 1 -9.195836,-6.55045 9.1958351,6.5504479 0 0 1 9.195836,-6.55045 9.1958351,6.5504479 0 0 1 9.195835,6.55045 z" /><path
         id="ellipse1196"
         style="fill:#ffff00;fill-opacity:0.577899;stroke-width:1.61521;filter:url(#filter1202)"
         transform="matrix(-0.85087061,0.5253753,0.5253753,0.85087061,119.3743,21.728925)"
         d="m 94.504025,155.16867 a 9.1958351,6.5504479 0 0 1 -9.195836,6.55045 9.1958351,6.5504479 0 0 1 -9.195835,-6.55045 9.1958351,6.5504479 0 0 1 9.195835,-6.55045 9.1958351,6.5504479 0 0 1 9.195836,6.55045 z" /><path
         id="ellipse1208"
         style="fill-opacity:0.577899;stroke-width:1.61521;filter:url(#filter1202)"
         transform="matrix(-0.40813323,0.05136687,0.11934369,0.35257162,143.5592,140.47532)"
         d="m 94.504025,155.16867 a 9.1958351,6.5504479 0 0 1 -9.195836,6.55045 9.1958351,6.5504479 0 0 1 -9.195835,-6.55045 9.1958351,6.5504479 0 0 1 9.195835,-6.55045 9.1958351,6.5504479 0 0 1 9.195836,6.55045 z" /><path
         id="ellipse1214"
         style="fill-opacity:0.577899;stroke-width:1.61521;filter:url(#filter1202)"
         transform="matrix(0.40711645,0.05888539,-0.12582592,0.35031058,82.950199,140.18477)"
         d="m 94.504025,155.16867 a 9.1958351,6.5504479 0 0 1 -9.195836,6.55045 9.1958351,6.5504479 0 0 1 -9.195835,-6.55045 9.1958351,6.5504479 0 0 1 9.195835,-6.55045 9.1958351,6.5504479 0 0 1 9.195836,6.55045 z" /><path
         style="opacity:0.530945;mix-blend-mode:normal;fill:#00ffff;fill-opacity:1;fill-rule:evenodd;stroke:#000000;stroke-width:2.21004;filter:url(#filter18838-3)"
         d="m 152.62003,198.69466 12.47948,13.37405 54.39722,-53.22151 -53.63537,31.59305 -13.88948,-12.47572 -34.90363,43.97452 z"
         id="path18830-3"
         sodipodi:nodetypes="ccccccc"
         transform="matrix(0.53554974,-0.07926236,0.15827191,0.78276514,13.747642,37.1215)" /><path
         style="opacity:0.530945;mix-blend-mode:normal;fill:#00ffff;fill-opacity:1;fill-rule:evenodd;stroke:#000000;stroke-width:2.21004;filter:url(#filter18838-3)"
         d="m 152.62003,198.69466 12.47948,13.37405 54.39722,-53.22151 -53.63537,31.59305 -13.88948,-12.47572 -34.90363,43.97452 z"
         id="path18844-6"
         sodipodi:nodetypes="ccccccc"
         transform="matrix(-0.53554974,-0.07926236,-0.15827191,0.78276514,211.08118,37.1215)" /><path
         d="m -433.20433,22.482115 1.33334,-38.879977 h 22.13332 v 6.4533297 H -424.991 c -0.0533,1.4933325 -0.10666,2.8799983 -0.21333,4.2666641 -0.10667,1.3866659 -0.16,2.7733317 -0.21333,4.3733308 h 14.34665 V 5.842125 H -425.151 l 0.48,16.63999 z"
         id="path18916"
         transform="matrix(0.72394059,0,0,2.2221672,290.73037,180.09849)"
         style="font-weight:bold;font-size:53.3333px;font-family:OpenDyslexic;-inkscape-font-specification:'OpenDyslexic Bold';white-space:pre;opacity:0.810689;fill:#00ff00;fill-rule:evenodd;stroke:#000000;stroke-width:2.64209;filter:url(#filter12959)" /><path
         d="m -362.80438,22.482115 v -38.879977 h 25.33331 v 6.186663 h -18.34665 v 8.9599949 h 17.54665 v 6.1333296 h -17.54665 v 7.9466615 h 18.77332 v 9.653328 z"
         id="path18910"
         transform="matrix(0.72394059,0,0,2.2221672,290.73037,180.09849)"
         style="font-weight:bold;font-size:53.3333px;font-family:OpenDyslexic;-inkscape-font-specification:'OpenDyslexic Bold';white-space:pre;opacity:0.810689;fill:#00ff00;fill-rule:evenodd;stroke:#000000;stroke-width:2.64209;filter:url(#filter12959)" /><path
         d="m -329.25775,22.482115 v -38.879977 h 25.33331 v 6.186663 h -18.34665 v 8.9599949 h 17.54665 v 6.1333296 h -17.54665 v 7.9466615 h 18.77332 v 9.653328 z"
         id="path18908"
         transform="matrix(0.72394059,0,0,2.2221672,290.73037,180.09849)"
         style="font-weight:bold;font-size:53.3333px;font-family:OpenDyslexic;-inkscape-font-specification:'OpenDyslexic Bold';white-space:pre;opacity:0.810689;fill:#00ff00;fill-rule:evenodd;stroke:#000000;stroke-width:2.64209;filter:url(#filter12959)" /><path
         id="path18914"
         style="font-weight:bold;font-size:53.3333px;font-family:OpenDyslexic;-inkscape-font-specification:'OpenDyslexic Bold';white-space:pre;opacity:0.810689;fill:#00ff00;fill-rule:evenodd;stroke:#000000;stroke-width:2.64209;filter:url(#filter12959)"
         transform="matrix(0.72394059,0,0,2.2221672,290.73037,180.09849)"
         d="m -394.48433,-11.811198 v 11.6266599 h 5.33333 c 3.36,0 6.77333,-2.293332 6.77333,-4.5866639 0,-5.546663 -3.46666,-7.039996 -6.77333,-7.039996 z m 17.59999,7.039996 c 0,4.21333079 -1.59999,7.3066623 -4.42666,9.0133279 1.76,1.3333326 3.30667,3.6266645 4.90666,6.7199961 0.85334,1.653332 1.86667,3.733331 2.93334,5.81333 1.01333,2.026665 2.07999,4.053331 2.87999,5.706663 h -9.38666 l -3.94666,-10.079994 v 0.05333 c -2.24,-4.6399969 -3.84,-5.546663 -7.36,-5.546663 h -2.72 v 15.573324 h -7.94666 v -38.879977 h 12.26666 c 4.05333,0 7.2,0.96 9.38666,2.879999 2.24,1.919998 3.41333,4.85333 3.41333,8.746661 z" /><path
         d="m -191.44432,22.482115 1.33334,-38.879977 h 22.13332 v 6.4533297 h -15.25333 c -0.0533,1.4933325 -0.10666,2.8799983 -0.21333,4.2666641 -0.10667,1.3866659 -0.16,2.7733317 -0.21333,4.3733308 H -169.311 V 5.842125 h -14.07999 l 0.48,16.63999 z"
         id="path18906"
         transform="matrix(0.53805664,0,0,2.233969,254.20923,180.06755)"
         style="font-weight:bold;font-size:53.3333px;font-family:OpenDyslexic;-inkscape-font-specification:'OpenDyslexic Bold';white-space:pre;opacity:0.810689;fill:#00ff00;fill-rule:evenodd;stroke:#000000;stroke-width:2.64209;filter:url(#filter12959)" /><path
         d="m -160.19099,-10.211199 v -6.186663 h 33.22665 v 6.239997 l -13.06666,-0.533334 0.96,33.173314 h -9.01333 l 0.96,-33.173314 z"
         id="path18904"
         transform="matrix(0.53805664,0,0,2.233969,254.20923,180.06755)"
         style="font-weight:bold;font-size:53.3333px;font-family:OpenDyslexic;-inkscape-font-specification:'OpenDyslexic Bold';white-space:pre;opacity:0.810689;fill:#00ff00;fill-rule:evenodd;stroke:#000000;stroke-width:2.64209;filter:url(#filter12959)" /><path
         d="m -119.17771,22.482115 v -38.879977 h 25.333314 v 6.186663 h -18.346654 v 8.9599949 h 17.546655 v 6.1333296 h -17.546655 v 7.9466615 h 18.773321 v 9.653328 z"
         id="path18902"
         transform="matrix(0.53805664,0,0,2.233969,254.20923,180.06755)"
         style="font-weight:bold;font-size:53.3333px;font-family:OpenDyslexic;-inkscape-font-specification:'OpenDyslexic Bold';white-space:pre;opacity:0.810689;fill:#00ff00;fill-rule:evenodd;stroke:#000000;stroke-width:2.64209;filter:url(#filter12959)" /><path
         d="m -59.871098,-7.7578669 c -4.693331,-2.1866654 -8.266662,-3.2533311 -11.253327,-3.2533311 -4.799997,0 -7.519996,1.8133319 -7.519996,5.0666633 0,1.3333326 0.373334,2.3466653 1.12,2.9333316 0.853333,0.7466662 2.559998,1.3333326 5.119997,1.8133323 l 3.039998,0.58666628 h -0.05333 c 7.999995,1.54666575 11.733326,5.33333012 11.733326,11.94665952 0,7.786662 -5.17333,11.893326 -15.146658,11.893326 -3.573331,0 -7.893328,-0.906666 -12.639992,-2.666665 V 10.268789 c 4.906664,2.773332 9.066661,4.213331 12.639992,4.213331 2.666665,0 4.639998,-0.533333 6.079997,-1.546666 1.279999,-0.906666 1.866665,-1.706666 1.866665,-2.506665 0,-0.693333 -0.479999,-1.4399992 -1.333332,-2.2933321 -0.96,-0.7999995 -2.826665,-1.5466657 -5.013331,-2.0266654 L -74.27109,5.5221252 c -7.839995,-1.4933325 -11.359993,-4.90666378 -11.359993,-11.0399935 0,-7.1999957 5.439997,-11.5733267 13.919992,-11.5733267 3.573331,0 7.519995,0.746667 11.839993,2.186666 z"
         id="path18900"
         transform="matrix(0.53805664,0,0,2.233969,254.20923,180.06755)"
         style="font-weight:bold;font-size:53.3333px;font-family:OpenDyslexic;-inkscape-font-specification:'OpenDyslexic Bold';white-space:pre;opacity:0.810689;fill:#00ff00;fill-rule:evenodd;stroke:#000000;stroke-width:2.64209;filter:url(#filter12959)" /><path
         d="m -18.164462,-6.3178678 c -5.919996,-4.0533312 -9.173328,-4.6399972 -13.226659,-4.6399972 -7.839995,0 -11.253326,4.8533304 -11.253326,14.0266583 0.106666,7.9466617 3.999997,10.5599937 12.053326,10.5599937 4.053331,0 8.053329,-1.919999 12.426659,-5.9199965 V 19.17545 c -3.946664,2.666665 -8.106662,4.053331 -12.693326,4.053331 -11.786659,0 -19.039988,-7.786662 -19.039988,-20.1599877 0,-12.3199927 6.453329,-19.6266553 18.239989,-20.1599883 4.533331,-0.213333 7.999995,0.05333 13.493325,2.719999 z"
         id="path18890"
         transform="matrix(0.53805664,0,0,2.233969,254.20923,180.06755)"
         style="font-weight:bold;font-size:53.3333px;font-family:OpenDyslexic;-inkscape-font-specification:'OpenDyslexic Bold';white-space:pre;opacity:0.810689;fill:#00ff00;fill-rule:evenodd;stroke:#000000;stroke-width:2.64209;filter:url(#filter12959)" /></g></g></svg>
